name D:\school\WTK\thesis\model\3dpredictsim\Results\MidTarsalJoint\Fal_s1_bCst_PF_Natali2010_ls150_MT_k300_MTP_T5_ig24.mot
datacolumns 128
datarows 4
range 1.69831716 1.73228350
endheader
time	pelvis_tilt	pelvis_list	pelvis_rotation	pelvis_tx	pelvis_ty	pelvis_tz	hip_flexion_l	hip_adduction_l	hip_rotation_l	hip_flexion_r	hip_adduction_r	hip_rotation_r	knee_angle_l	knee_angle_r	ankle_angle_l	ankle_angle_r	subtalar_angle_l	subtalar_angle_r	tmt_angle_l	tmt_angle_r	mtp_angle_l	mtp_angle_r	lumbar_extension	lumbar_bending	lumbar_rotation	arm_flex_l	arm_add_l	arm_rot_l	arm_flex_r	arm_add_r	arm_rot_r	elbow_flex_l	elbow_flex_r	pro_sup_l	pro_sup_r	glut_med1_l/activation	glut_med2_l/activation	glut_med3_l/activation	glut_min1_l/activation	glut_min2_l/activation	glut_min3_l/activation	semimem_l/activation	semiten_l/activation	bifemlh_l/activation	bifemsh_l/activation	sar_l/activation	add_long_l/activation	add_brev_l/activation	add_mag1_l/activation	add_mag2_l/activation	add_mag3_l/activation	tfl_l/activation	pect_l/activation	grac_l/activation	glut_max1_l/activation	glut_max2_l/activation	glut_max3_l/activation	iliacus_l/activation	psoas_l/activation	quad_fem_l/activation	gem_l/activation	peri_l/activation	rect_fem_l/activation	vas_med_l/activation	vas_int_l/activation	vas_lat_l/activation	med_gas_l/activation	lat_gas_l/activation	soleus_l/activation	tib_post_l/activation	flex_dig_l/activation	flex_hal_l/activation	tib_ant_l/activation	per_brev_l/activation	per_long_l/activation	per_tert_l/activation	ext_dig_l/activation	ext_hal_l/activation	ercspn_l/activation	intobl_l/activation	extobl_l/activation	glut_med1_r/activation	glut_med2_r/activation	glut_med3_r/activation	glut_min1_r/activation	glut_min2_r/activation	glut_min3_r/activation	semimem_r/activation	semiten_r/activation	bifemlh_r/activation	bifemsh_r/activation	sar_r/activation	add_long_r/activation	add_brev_r/activation	add_mag1_r/activation	add_mag2_r/activation	add_mag3_r/activation	tfl_r/activation	pect_r/activation	grac_r/activation	glut_max1_r/activation	glut_max2_r/activation	glut_max3_r/activation	iliacus_r/activation	psoas_r/activation	quad_fem_r/activation	gem_r/activation	peri_r/activation	rect_fem_r/activation	vas_med_r/activation	vas_int_r/activation	vas_lat_r/activation	med_gas_r/activation	lat_gas_r/activation	soleus_r/activation	tib_post_r/activation	flex_dig_r/activation	flex_hal_r/activation	tib_ant_r/activation	per_brev_r/activation	per_long_r/activation	per_tert_r/activation	ext_dig_r/activation	ext_hal_r/activation	ercspn_r/activation	intobl_r/activation	extobl_r/activation	
          1.69831716	         -2.92992786	          2.08053193	         -5.21188106	          2.12289644	          0.91982704	          0.00201420	         29.38190494	          3.36098979	         -2.17837209	        -16.70529335	         -0.84329994	          6.69708331	        -11.14851520	         -7.54753536	          5.77015332	         -2.03424638	         -4.70433547	          7.88152734	         -0.14484045	          4.69511034	          0.71744606	         12.83368191	         -2.03773770	         -0.23402568	          1.94434000	         -4.84959704	        -13.45488494	          6.28503773	          4.71905332	        -13.45073920	         15.52690149	         17.11931497	         34.39056066	         86.51662706	         86.51662706	          0.05000016	          0.05000020	          0.05943509	          0.05000004	          0.05000006	          0.05000059	          0.21436916	          0.05943516	          0.07355024	          0.05000029	          0.05000018	          0.09433619	          0.18380550	          0.20362025	          0.16899045	          0.11159599	          0.05943507	          0.05000121	          0.11312743	          0.05943573	          0.07065171	          0.11261005	          0.05000002	          0.05000003	          0.21145812	          0.05000063	          0.05000022	          0.05000003	          0.07029528	          0.07250025	          0.05843867	          0.05943502	          0.05943497	          0.05943508	          0.05000036	          0.05000035	          0.05000061	          0.47440725	          0.29808859	          0.18109421	          0.08719074	          0.45783505	          0.05000033	          0.05943510	          0.13265556	          0.11062567	          0.32542347	          0.10328527	          0.08085505	          0.31272211	          0.21006818	          0.11779615	          0.05000037	          0.05000007	          0.05000005	          0.06054265	          0.11755420	          0.05000002	          0.05000003	          0.05000004	          0.05000016	          0.05000013	          0.33091545	          0.05000013	          0.05000011	          0.05004668	          0.05000211	          0.05000040	          0.41352446	          0.63447080	          0.05000007	          0.05000033	          0.05919969	          0.23269373	          0.05000068	          0.05000033	          0.05000030	          0.30064022	          0.41037662	          0.34585658	          0.27885595	          0.27343579	          0.35978557	          0.05000002	          0.05790479	          0.12604713	          0.05000011	          0.05000003	          0.05000012	          0.05000000	          0.05000000	          0.05000000	
          1.70963927	         -2.92941691	          2.16934161	         -5.48938342	          2.13981264	          0.91896968	          0.00181063	         28.78559329	          3.74141327	         -1.99553309	        -16.64630692	         -1.14586723	          6.50027736	        -11.16066756	         -9.32390436	          5.09839436	         -2.53865836	         -5.10075024	          8.86772021	         -0.18091822	          3.87990461	          0.71031354	         14.54141243	         -1.85045663	         -0.43269022	          2.01857940	         -5.70825391	        -13.45017436	          6.02289107	          4.48172741	        -13.45751379	         15.92180577	         16.71923100	         35.51723286	         86.51662706	         86.51662706	          0.05091990	          0.05000015	          0.05000005	          0.05943518	          0.05714058	          0.05000008	          0.18033891	          0.05000008	          0.06187444	          0.05000007	          0.05000047	          0.11866836	          0.24826065	          0.23764365	          0.16581410	          0.09947334	          0.05000007	          0.07065066	          0.09516910	          0.05000059	          0.05943605	          0.11658939	          0.07040730	          0.06700257	          0.55063896	          0.16861245	          0.16117409	          0.08398239	          0.20022161	          0.19894145	          0.17183731	          0.05000000	          0.05000000	          0.05000000	          0.05000005	          0.05000041	          0.05000038	          0.53455392	          0.25076902	          0.18489428	          0.20874783	          0.48385462	          0.05943540	          0.05000001	          0.11159700	          0.09306427	          0.27376378	          0.08688914	          0.06801964	          0.26307872	          0.17672069	          0.09909648	          0.05000092	          0.05000019	          0.05000023	          0.05093177	          0.09889300	          0.10151794	          0.08002437	          0.05008508	          0.05000198	          0.05000137	          0.27838394	          0.07557307	          0.05000320	          0.05000075	          0.05000052	          0.05000057	          0.34787906	          0.53742134	          0.05000031	          0.05004027	          0.05943513	          0.19575452	          0.05000037	          0.14648271	          0.13142693	          0.25291474	          0.34523092	          0.30679218	          0.24950268	          0.23002932	          0.30267286	          0.05000000	          0.05000019	          0.12406127	          0.05000005	          0.05000001	          0.05000006	          0.05000001	          0.07256126	          0.05676176	
          1.72096138	         -2.92507966	          2.26046946	         -5.73854324	          2.15707583	          0.91814300	          0.00162583	         28.06339864	          4.04728312	         -1.75087126	        -16.53420945	         -1.44999207	          6.29523153	        -11.56873969	        -11.18328075	          4.45117143	         -3.17467117	         -5.50353142	          9.82545908	         -0.34006927	          2.91581783	          0.70178676	         16.35674453	         -1.63946018	         -0.64356269	          2.08222214	         -6.60367938	        -13.45182433	          5.80726909	          4.16052729	        -13.46202074	         16.24108215	         16.37225037	         36.62756845	         86.51662706	         86.51662706	          0.23622989	          0.05000007	          0.15128833	          0.05000012	          0.05000007	          0.11216665	          0.16966617	          0.09105196	          0.07686016	          0.05000012	          0.05000047	          0.09983024	          0.20885027	          0.19991870	          0.13949185	          0.10915914	          0.05000032	          0.05943579	          0.08007254	          0.05000025	          0.05000095	          0.09808132	          0.05943503	          0.05896199	          0.46322713	          0.14184589	          0.14691892	          0.07065051	          0.16843720	          0.16736026	          0.14455880	          0.05317035	          0.05444687	          0.05254539	          0.05000032	          0.05000045	          0.05000038	          0.44969572	          0.27061084	          0.15554308	          0.17560993	          0.55786316	          0.05000026	          0.05000000	          0.11866823	          0.07829067	          0.33888212	          0.07309583	          0.05722180	          0.22131604	          0.14866698	          0.08336531	          0.05000130	          0.05000041	          0.05000029	          0.05000008	          0.08319420	          0.13167733	          0.08830624	          0.05943549	          0.05943540	          0.05943513	          0.23419174	          0.08199397	          0.05030599	          0.05000417	          0.05000847	          0.05943478	          0.29265467	          0.52941234	          0.05674718	          0.05000055	          0.05000008	          0.16467924	          0.11116149	          0.12322968	          0.11056376	          0.21276549	          0.29042683	          0.25809009	          0.20989511	          0.19351312	          0.25462476	          0.05000001	          0.05000021	          0.15117578	          0.05000007	          0.05000003	          0.05000008	          0.05000019	          0.06104244	          0.05943514	
          1.73228350	         -2.91850008	          2.35415427	         -5.95325782	          2.17452490	          0.91735904	          0.00144032	         27.22242184	          4.29804634	         -1.49555705	        -16.34343638	         -1.75144062	          6.08892052	        -11.95001385	        -13.15161115	          3.85723733	         -3.95629193	         -5.91000476	         10.73677819	         -0.27939242	          1.85025228	          0.72117126	         18.19229658	         -1.42125886	         -0.86627403	          2.13626895	         -7.49728479	        -13.45947560	          5.65154237	          3.77780697	        -13.46783923	         16.49468524	         16.05659720	         37.71516017	         86.51662706	         86.51662706	          0.30727226	          0.26443005	          0.30313546	          0.15261797	          0.20457506	          0.16052121	          0.14273232	          0.07659788	          0.06465892	          0.07626617	          0.05000273	          0.08398258	          0.17569610	          0.16818242	          0.11734813	          0.13021782	          0.05000023	          0.05000073	          0.06736146	          0.19342004	          0.14391073	          0.09996280	          0.05000003	          0.05000003	          0.38969161	          0.11932845	          0.12359701	          0.05943503	          0.14169871	          0.14153677	          0.12161089	          0.05000011	          0.05000024	          0.05000002	          0.05000002	          0.05000008	          0.05000011	          0.57129970	          0.33478595	          0.17871341	          0.50235244	          0.52734512	          0.23239279	          0.07029723	          0.09983021	          0.06586233	          0.30632354	          0.06149216	          0.05000004	          0.34194972	          0.12506670	          0.07013141	          0.05000078	          0.05000007	          0.05000006	          0.05000014	          0.07013381	          0.11077427	          0.07428801	          0.05000041	          0.05000049	          0.05000020	          0.21571802	          0.06897832	          0.05000023	          0.05000054	          0.05000029	          0.05000020	          0.24619691	          0.49214548	          0.05000003	          0.05000028	          0.05000019	          0.13853709	          0.09351523	          0.12382808	          0.11857641	          0.17898978	          0.24432268	          0.21711927	          0.17657508	          0.16279369	          0.21420409	          0.06474933	          0.10269004	          0.14927615	          0.05000020	          0.10384294	          0.05000062	          0.06404981	          0.05135219	          0.05000004	
